<?xml version="1.0" encoding="utf-8"?>
<!-- Generator: Adobe Illustrator 24.0.1, SVG Export Plug-In . SVG Version: 6.00 Build 0)  -->
<svg version="1.1" id="Layer_1" xmlns="http://www.w3.org/2000/svg" xmlns:xlink="http://www.w3.org/1999/xlink" x="0px" y="0px"
	 viewBox="0 0 40 32" style="enable-background:new 0 0 40 32;" xml:space="preserve">
<style type="text/css">
	.st0{opacity:0.15;fill:url(#SVGID_1_);enable-background:new    ;}
	.st1{opacity:0.15;fill:url(#SVGID_2_);enable-background:new    ;}
	.st2{opacity:0.15;fill:url(#SVGID_3_);enable-background:new    ;}
	.st3{opacity:0.15;fill:url(#SVGID_4_);enable-background:new    ;}
	.st4{opacity:0.15;fill:url(#SVGID_5_);enable-background:new    ;}
	.st5{fill:url(#SVGID_6_);}
</style>
<g>
	<linearGradient id="SVGID_1_" gradientUnits="userSpaceOnUse" x1="12.8598" y1="10.8586" x2="17.4117" y2="10.8586">
		<stop  offset="0.26" style="stop-color:#FFDB6E"/>
		<stop  offset="1" style="stop-color:#FFBC5E"/>
	</linearGradient>
	<polygon class="st0" points="12.9,11.2 15.1,13.3 17.4,11.1 15.1,8.4 12.9,10.9 	"/>
	<linearGradient id="SVGID_2_" gradientUnits="userSpaceOnUse" x1="12.6366" y1="28.6422" x2="17.6794" y2="28.6422">
		<stop  offset="0.26" style="stop-color:#FFDB6E"/>
		<stop  offset="1" style="stop-color:#FFBC5E"/>
	</linearGradient>
	<polygon class="st1" points="12.6,28.6 15.1,31 17.7,28.5 15.1,26.3 	"/>
	<linearGradient id="SVGID_3_" gradientUnits="userSpaceOnUse" x1="29.9517" y1="11.0093" x2="35.0391" y2="11.0093">
		<stop  offset="0.26" style="stop-color:#FFDB6E"/>
		<stop  offset="1" style="stop-color:#FFBC5E"/>
	</linearGradient>
	<polygon class="st2" points="30,10.9 32.2,13 35,11.1 32.8,9 	"/>
	<linearGradient id="SVGID_4_" gradientUnits="userSpaceOnUse" x1="22.8561" y1="2.2104" x2="25.0874" y2="2.2104">
		<stop  offset="0.26" style="stop-color:#FFDB6E"/>
		<stop  offset="1" style="stop-color:#FFBC5E"/>
	</linearGradient>
	<polygon class="st3" points="22.9,3.1 24.3,3.4 25.1,2.4 24.5,1 23.1,1 	"/>
	<linearGradient id="SVGID_5_" gradientUnits="userSpaceOnUse" x1="5.0502" y1="19.6647" x2="7.6385" y2="19.6647">
		<stop  offset="0.26" style="stop-color:#FFDB6E"/>
		<stop  offset="1" style="stop-color:#FFBC5E"/>
	</linearGradient>
	<polygon class="st4" points="5.6,18.4 5.1,20.2 5.9,20.9 7.1,20.5 7.6,19.7 7.1,18.6 	"/>
	<g>
		<linearGradient id="SVGID_6_" gradientUnits="userSpaceOnUse" x1="4.4772" y1="16" x2="35.5228" y2="16">
			<stop  offset="0.26" style="stop-color:#FFDB6E"/>
			<stop  offset="1" style="stop-color:#FFBC5E"/>
		</linearGradient>
		<path class="st5" d="M4.5,19.5c0-0.1,0.1-0.2,0.1-0.3c0.3-1,1.5-1.5,2.5-1.1c0.1,0,0.2,0.1,0.3,0c1.9-1.9,3.8-3.8,5.7-5.7
			c0,0,0,0,0.1-0.1c-0.2-0.2-0.5-0.5-0.7-0.7c-0.3-0.3-0.3-0.6,0-1c0.7-0.8,1.5-1.5,2.2-2.3c0.3-0.3,0.6-0.3,0.9,0
			c0.2,0.2,0.5,0.5,0.7,0.7c0.6-0.6,1.1-1.1,1.6-1.6c1.4-1.4,2.8-2.8,4.1-4.1c0.1-0.1,0.1-0.2,0.1-0.3c-0.4-1.1,0.2-2.3,1.4-2.5
			c0,0,0.1,0,0.1,0c0.2,0,0.3,0,0.5,0c0.2,0.1,0.4,0.1,0.5,0.2c0.9,0.4,1.3,1.5,0.9,2.4c-0.4,0.9-1.5,1.3-2.4,1
			c-0.1,0-0.2-0.1-0.2,0c-1.2,1.2-2.3,2.3-3.5,3.5c0,0,0,0-0.1,0.1c4.2-1.4,8.2-0.9,11.9,1.5c0.3-0.3,0.6-0.6,0.9-0.9
			C32.4,8,32.7,8,33,8.3c0.8,0.8,1.5,1.5,2.3,2.3c0.3,0.3,0.3,0.6,0,0.9c-0.8,0.8-1.5,1.5-2.3,2.3c-0.3,0.3-0.6,0.3-0.9,0
			c-0.8-0.8-1.5-1.5-2.3-2.3c-0.3-0.3-0.3-0.6,0-0.9c0.2-0.2,0.4-0.4,0.6-0.6c-1.9-1.2-3.8-1.9-6-2c-3-0.2-5.6,0.9-7.1,2
			c0.2,0.2,0.4,0.4,0.6,0.6c0.3,0.3,0.3,0.6,0,0.9c-0.8,0.8-1.5,1.5-2.3,2.3c-0.3,0.3-0.6,0.3-0.9,0c-0.2-0.2-0.4-0.4-0.6-0.6
			c-1.2,1.8-1.8,3.7-2,5.8c-0.1,2.6,0.5,5,2,7.3c0.2-0.2,0.4-0.4,0.6-0.6c0.3-0.3,0.6-0.3,0.9,0c0.8,0.8,1.6,1.6,2.3,2.3
			c0.3,0.3,0.3,0.6,0,0.9c-0.8,0.8-1.6,1.6-2.4,2.4c-0.2,0.2-0.6,0.2-0.8,0c-0.8-0.8-1.6-1.6-2.4-2.4c-0.3-0.3-0.3-0.6,0-0.9
			c0.3-0.3,0.6-0.6,0.9-0.9c-2.4-3.7-2.9-7.7-1.5-11.9c-0.1,0-0.1,0.1-0.1,0.1c-1.1,1.1-2.3,2.3-3.4,3.4c0,0-0.1,0.2-0.1,0.2
			c0.4,1-0.1,2.2-1.2,2.5c-1.2,0.4-2.2-0.5-2.4-1.5c0,0,0,0,0,0C4.5,19.9,4.5,19.7,4.5,19.5z M13.5,11.1c0.5,0.5,1.1,1,1.5,1.5
			c0.5-0.5,1.1-1,1.6-1.5c-0.5-0.5-1-1-1.6-1.6C14.6,10,14,10.5,13.5,11.1z M32.5,12.6c0.5-0.5,1-1,1.6-1.5
			c-0.5-0.5-1.1-1.1-1.6-1.6c-0.5,0.5-1,1-1.6,1.6C31.5,11.6,32,12.1,32.5,12.6z M15.1,30.1c0.5-0.5,1-1,1.6-1.6
			c-0.5-0.5-1-1.1-1.5-1.6c-0.5,0.5-1,1-1.6,1.6C14,29.1,14.6,29.6,15.1,30.1z M23.1,2.3c0,0.4,0.3,0.7,0.7,0.7
			c0.4,0,0.7-0.3,0.7-0.7c0-0.4-0.3-0.7-0.7-0.7C23.4,1.6,23.1,1.9,23.1,2.3z M6.3,20.5c0.4,0,0.7-0.3,0.7-0.7
			c0-0.4-0.3-0.7-0.7-0.7c-0.4,0-0.7,0.3-0.7,0.7C5.6,20.2,5.9,20.5,6.3,20.5z"/>
	</g>
</g>
</svg>
