<?xml version="1.0" encoding="utf-8"?>
<!-- Generator: Adobe Illustrator 24.0.1, SVG Export Plug-In . SVG Version: 6.00 Build 0)  -->
<svg version="1.1" id="Layer_1" xmlns="http://www.w3.org/2000/svg" xmlns:xlink="http://www.w3.org/1999/xlink" x="0px" y="0px"
	 viewBox="0 0 40 32" style="enable-background:new 0 0 40 32;" xml:space="preserve">
<style type="text/css">
	.st0{opacity:0.15;fill:url(#SVGID_1_);enable-background:new    ;}
	.st1{opacity:0.15;fill:url(#SVGID_2_);enable-background:new    ;}
	.st2{opacity:0.15;fill:url(#SVGID_3_);enable-background:new    ;}
	.st3{opacity:0.15;fill:url(#SVGID_4_);enable-background:new    ;}
	.st4{opacity:0.15;fill:url(#SVGID_5_);enable-background:new    ;}
	.st5{fill:url(#SVGID_6_);}
	.st6{fill:url(#SVGID_7_);}
	.st7{fill:url(#SVGID_8_);}
	.st8{fill:url(#SVGID_9_);}
	.st9{fill:url(#SVGID_10_);}
	.st10{fill:url(#SVGID_11_);}
	.st11{fill:url(#SVGID_12_);}
	.st12{fill:url(#SVGID_13_);}
	.st13{opacity:0.15;fill:url(#SVGID_14_);enable-background:new    ;}
</style>
<g>
	<linearGradient id="SVGID_1_" gradientUnits="userSpaceOnUse" x1="13.9333" y1="7.7289" x2="19.1799" y2="7.7289">
		<stop  offset="0.26" style="stop-color:#FFDB6E"/>
		<stop  offset="1" style="stop-color:#FFBC5E"/>
	</linearGradient>
	<polygon class="st0" points="13.9,6.8 14.5,10 16,10.8 17.9,10.4 19.2,7.7 18.6,6.8 17.9,6.4 16.6,4.6 15.5,6 	"/>
	<linearGradient id="SVGID_2_" gradientUnits="userSpaceOnUse" x1="25.4215" y1="18.5607" x2="30.6681" y2="18.5607">
		<stop  offset="0.26" style="stop-color:#FFDB6E"/>
		<stop  offset="1" style="stop-color:#FFBC5E"/>
	</linearGradient>
	<polygon class="st1" points="25.4,17.7 26,20.8 27.5,21.7 29.4,21.2 30.7,18.5 30.1,17.7 29.4,17.2 28,15.5 27,16.8 	"/>
	<linearGradient id="SVGID_3_" gradientUnits="userSpaceOnUse" x1="8.4739" y1="26.5643" x2="19.8053" y2="26.5643">
		<stop  offset="0.26" style="stop-color:#FFDB6E"/>
		<stop  offset="1" style="stop-color:#FFBC5E"/>
	</linearGradient>
	<rect x="8.5" y="25.5" class="st2" width="11.3" height="2.2"/>
	<linearGradient id="SVGID_4_" gradientUnits="userSpaceOnUse" x1="23.8111" y1="29.5121" x2="38.8947" y2="29.5121">
		<stop  offset="0.26" style="stop-color:#FFDB6E"/>
		<stop  offset="1" style="stop-color:#FFBC5E"/>
	</linearGradient>
	<rect x="23.8" y="28.3" class="st3" width="15.1" height="2.5"/>
	<linearGradient id="SVGID_5_" gradientUnits="userSpaceOnUse" x1="0.8579" y1="20.0369" x2="19.8053" y2="20.0369">
		<stop  offset="0.26" style="stop-color:#FFDB6E"/>
		<stop  offset="1" style="stop-color:#FFBC5E"/>
	</linearGradient>
	<rect x="0.9" y="18.4" class="st4" width="18.9" height="3.3"/>
	<g>
		<linearGradient id="SVGID_6_" gradientUnits="userSpaceOnUse" x1="0.3135" y1="16" x2="39.6865" y2="16">
			<stop  offset="0.26" style="stop-color:#FFDB6E"/>
			<stop  offset="1" style="stop-color:#FFBC5E"/>
		</linearGradient>
		<path class="st5" d="M36.9,27.9c0.8,0,1.5,0,2.1,0c0.5,0,0.6,0.2,0.6,0.6c0,0.2,0,0.5,0,0.7c0,1.4-1.1,2.5-2.5,2.5
			c-3.8,0-7.7,0-11.5,0c-1.2,0-2.4,0-3.5,0c-1.8,0-2.9-1.1-2.9-2.9c0-0.1,0-0.3,0-0.4c-0.2,0-0.4,0-0.5,0c-5.4,0-10.9,0-16.3,0
			c-0.6,0-0.8-0.1-0.8-0.5c0-0.3,0.2-0.5,0.8-0.5c1.8,0,3.5,0,5.4,0c0-0.3,0-0.7,0-1c0-0.8,0.4-1.2,1.2-1.2c0.5,0,1.1,0,1.6,0
			c0.1,0,0.3-0.1,0.3-0.2c0.2-0.8,0.3-1.5,0.4-2.3c-0.2,0-0.4,0-0.5,0c-2.8,0-5.6,0-8.4,0c-1.4,0-2.1-0.7-2.1-2.1
			c0-6.1,0-12.1,0-18.2C0.3,1,1,0.3,2.4,0.3c9.2,0,18.5,0,27.7,0c1.4,0,2.1,0.7,2.1,2.1c0,2.7,0,5.5,0,8.2c0,0.2,0,0.3,0,0.6
			c0.2,0,0.3,0,0.5,0c1.2,0,2.4,0,3.5,0c0.6,0,0.7,0.1,0.7,0.7c0,5.1,0,10.2,0,15.3C36.9,27.4,36.9,27.6,36.9,27.9z M20.1,12.2
			c0,0.2,0,0.3,0,0.4c0,5.4,0,10.8,0,16.2c0,0.2,0,0.3,0,0.5c0.1,0.9,0.9,1.6,1.9,1.5c0.5,0,1.1-0.7,1.1-1.5c0-0.2,0-0.4,0-0.6
			c-0.1-0.7,0-0.9,0.7-0.9c3.8,0,7.7,0,11.5,0c0.2,0,0.3,0,0.5,0c0-5.3,0-10.5,0-15.7C30.7,12.2,25.4,12.2,20.1,12.2z M7.3,15.8
			c4,0,7.9,0,11.9,0c0-1.3,0-2.5,0-3.7c0-0.7,0.1-0.8,0.9-0.8c2.6,0,5.2,0,7.8,0c0.2,0,0.3,0,0.5,0c0-2.7,0-5.3,0-7.9
			c-7.1,0-14.1,0-21.1,0C7.3,7.5,7.3,11.6,7.3,15.8z M31.2,11.2c0-0.2,0-0.3,0-0.4c0-2.8,0-5.6,0-8.5c0-0.8-0.3-1.1-1.1-1.1
			c-9.3,0-18.5,0-27.8,0c-0.8,0-1.1,0.3-1.1,1.1c0,5.1,0,10.1,0,15.2c0,0.2,0,0.3,0,0.5c6,0,12,0,17.9,0c0-0.4,0-0.8,0-1.2
			c-0.2,0-0.4,0-0.6,0c-4.9,0-9.8,0-14.8,0c-0.7,0-0.8-0.1-0.8-0.8c0-4.3,0-8.6,0-12.9c0-0.6,0.1-0.8,0.8-0.8c8.3,0,16.5,0,24.8,0
			c0.7,0,0.8,0.1,0.8,0.8c0,2.5,0,5.1,0,7.6c0,0.2,0,0.3,0,0.5C30,11.2,30.6,11.2,31.2,11.2z M19.2,19c-6,0-12,0-17.9,0
			c0,0.5,0,1,0,1.6c0,0.9,0.3,1.1,1.1,1.1c5.5,0,10.9,0,16.4,0c0.2,0,0.3,0,0.5,0C19.2,20.7,19.2,19.9,19.2,19z M23.8,30.8
			c0.1,0,0.3,0,0.4,0c2.4,0,4.8,0,7.1,0c1.9,0,3.8,0,5.8,0c1.1,0,1.8-0.8,1.6-1.9c-4.8,0-9.7,0-14.5,0C24.1,29.5,24,30.1,23.8,30.8z
			 M11.8,25.2c2.5,0,4.9,0,7.3,0c0-0.9,0-1.7,0-2.5c-2.3,0-4.6,0-6.9,0C12.1,23.5,12,24.3,11.8,25.2z M19.2,26.1c-0.1,0-0.2,0-0.2,0
			c-3.3,0-6.7,0-10,0c0,0-0.1,0-0.1,0c-0.1,0.1-0.2,0.1-0.2,0.2c0,0.4,0,0.7,0,1.1c3.5,0,7,0,10.5,0C19.2,27,19.2,26.6,19.2,26.1z
			 M4,10.4c0.8,0,1.5,0,2.3,0c0-0.6,0-1.1,0-1.7c-0.8,0-1.5,0-2.3,0C4,9.3,4,9.8,4,10.4z M6.3,11.4c-0.8,0-1.5,0-2.3,0
			c0,0.6,0,1.1,0,1.7c0.8,0,1.5,0,2.3,0C6.3,12.5,6.3,12,6.3,11.4z M4,15.8c0.8,0,1.5,0,2.3,0c0-0.6,0-1.1,0-1.7c-0.8,0-1.5,0-2.3,0
			C4,14.7,4,15.2,4,15.8z M4,5c0.8,0,1.5,0,2.3,0c0-0.6,0-1.1,0-1.7c-0.8,0-1.5,0-2.3,0C4,3.9,4,4.4,4,5z M6.3,6C5.6,6,4.8,6,4,6
			c0,0.6,0,1.1,0,1.7c0.8,0,1.5,0,2.3,0c0-0.5,0-1,0-1.5C6.4,6.1,6.3,6.1,6.3,6z"/>
		<linearGradient id="SVGID_7_" gradientUnits="userSpaceOnUse" x1="25.1557" y1="20.2643" x2="30.9387" y2="20.2643">
			<stop  offset="0.26" style="stop-color:#FFDB6E"/>
			<stop  offset="1" style="stop-color:#FFBC5E"/>
		</linearGradient>
		<path class="st6" d="M26.4,17c0.1-0.7,0.5-1.3,1.1-1.7c0.4-0.3,0.7-0.3,1.1,0c0.5,0.3,0.8,0.8,1,1.3c0,0.1,0.1,0.3,0.1,0.4
			c1-0.2,1.1-0.2,1.1,0.8c0,0.7,0,1.4-0.2,2.1c-0.3,1.2-1,1.9-2.2,2.1c0,0.4,0,0.7,0,1.2c0.2-0.2,0.3-0.3,0.4-0.4
			c0.2-0.2,0.5-0.3,0.7,0c0.2,0.2,0.2,0.5,0,0.7c-0.2,0.2-0.3,0.4-0.5,0.5c-0.3,0.3-0.7,0.6-0.6,1.1c0,0.1-0.3,0.4-0.4,0.4
			c-0.2,0-0.5-0.2-0.5-0.3c0.1-0.7-0.5-1.1-0.9-1.5c-0.2-0.3-0.6-0.5-0.3-0.9c0.2-0.3,0.5-0.2,0.9,0.2c0,0,0.1,0.1,0.1,0.1
			c0-0.4,0-0.7,0-1.1c-1.7-0.3-2.5-1.8-2.4-4.2C25.2,16.8,25.3,16.7,26.4,17z M27.6,21c0.1-1.9-0.2-2.7-1.4-3.1
			C25.9,19.4,26.5,20.9,27.6,21z M30,17.9c-1.3,0.4-1.8,1.5-1.4,3.1C29.6,20.8,30.1,19.7,30,17.9z M28,18.2c0.2-0.2,0.3-0.3,0.5-0.4
			c0.4-0.2,0.4-0.6,0.2-0.9c-0.2-0.3-0.5-0.6-0.7-0.8c-0.3,0.3-0.5,0.6-0.7,0.9c-0.1,0.2,0,0.5,0.1,0.6C27.6,17.8,27.8,18,28,18.2z"
			/>
		<linearGradient id="SVGID_8_" gradientUnits="userSpaceOnUse" x1="13.5692" y1="9.5411" x2="19.3661" y2="9.5411">
			<stop  offset="0.26" style="stop-color:#FFDB6E"/>
			<stop  offset="1" style="stop-color:#FFBC5E"/>
		</linearGradient>
		<path class="st7" d="M17,11.3c0,0.3,0,0.7,0,1.1c0.2-0.2,0.3-0.3,0.4-0.4c0.2-0.2,0.5-0.2,0.7,0c0.2,0.2,0.2,0.5,0,0.7
			c-0.2,0.2-0.4,0.4-0.6,0.6c-0.3,0.3-0.6,0.6-0.5,1.1c0,0.3-0.2,0.5-0.4,0.5c-0.2,0-0.5-0.3-0.4-0.4c0.1-0.7-0.4-1.1-0.9-1.5
			c-0.4-0.5-0.5-0.7-0.3-0.9c0.4-0.3,0.7,0,0.9,0.3c0,0,0.1,0.1,0.2,0.1c0-0.4,0-0.7,0-1c-1.6-0.3-2.5-1.5-2.4-4.2c0,0,0-0.1,0-0.1
			c0.1-1,0.1-1.1,1.2-0.8c0.1-0.7,0.5-1.3,1.1-1.7c0.4-0.3,0.7-0.3,1.1,0c0.6,0.4,1,1,1.1,1.7c1-0.2,1.1-0.2,1.2,0.9
			c0,0.6,0,1.2-0.1,1.8C19,10.2,18.3,11.1,17,11.3z M14.5,7.2c-0.1,1.8,0.4,3,1.4,3.1C16.1,8.4,15.8,7.6,14.5,7.2z M17,10.3
			c1.1-0.1,1.6-1.7,1.4-3.1C17.2,7.6,16.8,8.4,17,10.3z M16.5,7.5C16.7,7.2,17,7,17.2,6.8c0,0,0.1-0.1,0.1-0.2
			c0-0.3-0.3-1.1-0.7-1.3c-0.1,0-0.2-0.1-0.2,0c-0.2,0.3-0.5,0.6-0.7,0.9C15.6,6.5,15.6,6.8,16,7C16.2,7.1,16.3,7.3,16.5,7.5z"/>
		<linearGradient id="SVGID_9_" gradientUnits="userSpaceOnUse" x1="23.6789" y1="5.6995" x2="27.3315" y2="5.6995">
			<stop  offset="0.26" style="stop-color:#FFDB6E"/>
			<stop  offset="1" style="stop-color:#FFBC5E"/>
		</linearGradient>
		<path class="st8" d="M26.4,5c-0.8,0-1.4,0-2.1,0c-0.3,0-0.6-0.1-0.6-0.5c0-0.4,0.3-0.5,0.6-0.5c0.8,0,1.6,0,2.4,0
			c0.5,0,0.6,0.1,0.6,0.6c0,0.7,0,1.3,0,2c0,0.3-0.1,0.6-0.5,0.6c-0.4,0-0.4-0.3-0.4-0.6C26.4,6.2,26.4,5.6,26.4,5z"/>
		<linearGradient id="SVGID_10_" gradientUnits="userSpaceOnUse" x1="26.5192" y1="8.7526" x2="27.4008" y2="8.7526">
			<stop  offset="0.26" style="stop-color:#FFDB6E"/>
			<stop  offset="1" style="stop-color:#FFBC5E"/>
		</linearGradient>
		<path class="st9" d="M27.4,8.8c-0.1,0.2-0.1,0.5-0.3,0.6c-0.1,0.1-0.6,0-0.6,0c0-0.4,0-0.7,0-1.1c0,0,0.5-0.1,0.6,0
			C27.3,8.3,27.3,8.5,27.4,8.8z"/>
		<linearGradient id="SVGID_11_" gradientUnits="userSpaceOnUse" x1="3.1989" y1="20.1094" x2="4.8982" y2="20.1094">
			<stop  offset="0.26" style="stop-color:#FFDB6E"/>
			<stop  offset="1" style="stop-color:#FFBC5E"/>
		</linearGradient>
		<path class="st10" d="M4,19.6c0.6,0,0.9,0.1,0.9,0.5c-0.1,0.5-0.5,0.4-0.8,0.4c-0.1,0-0.3,0-0.4,0c-0.3,0-0.5-0.2-0.5-0.5
			c0-0.3,0.2-0.4,0.5-0.4C3.8,19.6,3.9,19.6,4,19.6z"/>
		<linearGradient id="SVGID_12_" gradientUnits="userSpaceOnUse" x1="5.8286" y1="20.1063" x2="7.5242" y2="20.1063">
			<stop  offset="0.26" style="stop-color:#FFDB6E"/>
			<stop  offset="1" style="stop-color:#FFBC5E"/>
		</linearGradient>
		<path class="st11" d="M6.7,20.6c-0.6,0-0.8-0.1-0.8-0.4c0-0.3,0.2-0.5,0.8-0.5c0.1,0,0.3,0,0.4,0c0.3,0,0.5,0.2,0.5,0.4
			c0,0.3-0.2,0.4-0.5,0.5C6.9,20.6,6.8,20.6,6.7,20.6z"/>
		<linearGradient id="SVGID_13_" gradientUnits="userSpaceOnUse" x1="8.4739" y1="20.1094" x2="10.1551" y2="20.1094">
			<stop  offset="0.26" style="stop-color:#FFDB6E"/>
			<stop  offset="1" style="stop-color:#FFBC5E"/>
		</linearGradient>
		<path class="st12" d="M9.4,19.6c0.3,0,0.7-0.1,0.8,0.4c0,0.4-0.2,0.5-0.8,0.5c-0.3,0-0.8,0.1-0.8-0.4C8.4,19.8,8.7,19.6,9.4,19.6z
			"/>
	</g>
	<linearGradient id="SVGID_14_" gradientUnits="userSpaceOnUse" x1="3.1989" y1="9.6" x2="6.9211" y2="9.6">
		<stop  offset="0.26" style="stop-color:#FFDB6E"/>
		<stop  offset="1" style="stop-color:#FFBC5E"/>
	</linearGradient>
	<rect x="3.2" y="2.7" class="st13" width="3.7" height="13.8"/>
</g>
</svg>
